<?xml version="1.0" encoding="UTF-8" standalone="no"?>
<!-- Created with Inkscape (http://www.inkscape.org/) -->

<svg
   xmlns:dc="http://purl.org/dc/elements/1.1/"
   xmlns:cc="http://creativecommons.org/ns#"
   xmlns:rdf="http://www.w3.org/1999/02/22-rdf-syntax-ns#"
   xmlns:svg="http://www.w3.org/2000/svg"
   xmlns="http://www.w3.org/2000/svg"
   xmlns:sodipodi="http://sodipodi.sourceforge.net/DTD/sodipodi-0.dtd"
   xmlns:inkscape="http://www.inkscape.org/namespaces/inkscape"
   width="16"
   height="16"
   id="svg2"
   version="1.1"
   inkscape:version="0.91 r13725"
   viewBox="0 0 16 16"
   sodipodi:docname="videomorph.svg"
   inkscape:export-filename="/home/oscar.garcell/Work/Qt/git/videomorph/share/videomorph.png"
   inkscape:export-xdpi="3846.5071"
   inkscape:export-ydpi="3846.5071">
  <defs
     id="defs4" />
  <sodipodi:namedview
     id="base"
     pagecolor="#ffffff"
     bordercolor="#666666"
     borderopacity="1.0"
     inkscape:pageopacity="0.0"
     inkscape:pageshadow="2"
     inkscape:zoom="31.678384"
     inkscape:cx="-2.6401208"
     inkscape:cy="8.8967429"
     inkscape:document-units="px"
     inkscape:current-layer="layer1"
     showgrid="true"
     inkscape:showpageshadow="false"
     borderlayer="true"
     inkscape:window-width="1440"
     inkscape:window-height="842"
     inkscape:window-x="0"
     inkscape:window-y="0"
     inkscape:window-maximized="1"
     units="px"
     inkscape:object-nodes="true">
    <inkscape:grid
       type="xygrid"
       id="grid4101" />
    <sodipodi:guide
       position="2,14.000017"
       orientation="12,0"
       id="guide4071" />
    <sodipodi:guide
       position="2,2.0000174"
       orientation="0,12"
       id="guide4073" />
    <sodipodi:guide
       position="14,2.0000174"
       orientation="-12,0"
       id="guide4075" />
    <sodipodi:guide
       position="14,14.000017"
       orientation="0,-12"
       id="guide4077" />
  </sodipodi:namedview>
  <metadata
     id="metadata7">
    <rdf:RDF>
      <cc:Work
         rdf:about="">
        <dc:format>image/svg+xml</dc:format>
        <dc:type
           rdf:resource="http://purl.org/dc/dcmitype/StillImage" />
        <dc:title />
      </cc:Work>
    </rdf:RDF>
  </metadata>
  <g
     inkscape:label="Capa 1"
     inkscape:groupmode="layer"
     id="layer1"
     transform="translate(0,-1036.3622)">
    <path
       inkscape:connector-curvature="0"
       style="opacity:1;fill:#0000ff;fill-opacity:1;stroke:none;stroke-width:2.79999995;stroke-miterlimit:4;stroke-dasharray:none;stroke-opacity:0.55026455"
       d="m 4.3407408,1039.7933 c -0.3939556,0 -0.711111,0.2864 -0.711111,0.6422 0,0.2801 0.1981994,0.5147 0.474074,0.6029 l 0,1.3238 1.8962962,0 0,-0.8563 0,-0.4281 c 0.2626371,0 0.4740741,-0.191 0.4740741,-0.4282 0,-0.2372 -0.211437,-0.4282 -0.4740741,-0.4282 -0.262637,0 -0.474074,0.191 -0.474074,0.4282 l -0.5175927,0 c 0.026387,-0.067 0.04352,-0.1384 0.04352,-0.2141 0,-0.3558 -0.3171555,-0.6422 -0.7111111,-0.6422 z M 6,1041.5059 l 0.9481482,0.8563 0,-1.7126 L 6,1041.5059 Z m -1.4222222,-0.4281 0.9481482,0 0,0.8563 -0.9481482,0 0,-0.8563 z"
       id="rect4170"
       inkscape:export-xdpi="90"
       inkscape:export-ydpi="90" />
    <path
       id="rect4253"
       d="m 2.1185184,1038.5088 0,5.6201 6.4,0 0,-5.6201 z m 0.8000002,0.8029 4.7999999,0 0,4.0144 -4.7999999,0 z m 6.3999998,0.062 0,0.8122 0,2.3365 0.7999996,0 0,-2.1232 c 1.914408,0.6794 3.195818,2.494 3.2,4.5319 l 0.8,0 c -0.0025,-2.7918 -2.046688,-5.1586 -4.7999996,-5.5574 z m -6.3999998,5.5574 c 0.00249,2.7918 2.0466879,5.1585 4.7999999,5.5574 l 0,-0.8123 0,-2.3365 -0.8000001,0 0,2.1232 c -1.914408,-0.6793 -3.1958178,-2.494 -3.2,-4.5318 z"
       style="fill:#0000ff;fill-opacity:1;stroke:none;stroke-opacity:1"
       inkscape:connector-curvature="0"
       sodipodi:nodetypes="cccccccccccccccccccccccccc"
       inkscape:export-xdpi="90"
       inkscape:export-ydpi="90" />
    <path
       inkscape:connector-curvature="0"
       style="fill:#0000ff;fill-opacity:1;stroke:none"
       d="m 9,1045.3622 0,5.0025 0.3134249,0 0.6268524,0 3.1342597,0 0.626851,0 0.313426,0 0,-5.0025 -0.313426,0 -0.626851,0 -3.1342597,0 -0.6268524,0 -0.3134249,0 z m 0.3134249,0.3336 0.3134268,0 0,0.3334 -0.3134268,0 0,-0.3334 z m 0.6268524,0 3.1342597,0 0,1.8341 -3.1342597,0 0,-1.8341 z m 3.4476857,0 0.313425,0 0,0.3334 -0.313425,0 0,-0.3334 z m -4.0745381,1.0005 0.3134268,0 0,0.3334 -0.3134268,0 0,-0.3334 z m 4.0745381,0 0.313425,0 0,0.3334 -0.313425,0 0,-0.3334 z m -4.0745381,1.0005 0.3134268,0 0,0.3334 -0.3134268,0 0,-0.3334 z m 4.0745381,0 0.313425,0 0,0.3334 -0.313425,0 0,-0.3334 z m -3.4476857,0.5002 3.1342597,0 0,1.8342 -3.1342597,0 0,-1.8342 z m -0.6268524,0.5003 0.3134268,0 0,0.3334 -0.3134268,0 0,-0.3334 z m 4.0745381,0 0.313425,0 0,0.3334 -0.313425,0 0,-0.3334 z m -4.0745381,1.0005 0.3134268,0 0,0.3334 -0.3134268,0 0,-0.3334 z m 4.0745381,0 0.313425,0 0,0.3334 -0.313425,0 0,-0.3334 z"
       id="rect3009"
       inkscape:export-xdpi="90"
       inkscape:export-ydpi="90" />
  </g>
</svg>
